<svg width="45" height="45" viewBox="0 0 45 45" fill="none" xmlns="http://www.w3.org/2000/svg">
<rect width="45" height="45" rx="3" fill="white" fill-opacity="0.1"/>
<path d="M22.5 33.75C23.7375 33.75 24.75 32.7375 24.75 31.5H20.25C20.25 32.7375 21.2625 33.75 22.5 33.75ZM29.25 27V21.375C29.25 17.9212 27.4162 15.03 24.1875 14.265V13.5C24.1875 12.5663 23.4337 11.8125 22.5 11.8125C21.5662 11.8125 20.8125 12.5663 20.8125 13.5V14.265C17.595 15.03 15.75 17.91 15.75 21.375V27L13.5 29.25V30.375H31.5V29.25L29.25 27ZM27 28.125H18V21.375C18 18.585 19.6987 16.3125 22.5 16.3125C25.3012 16.3125 27 18.585 27 21.375V28.125Z" fill="white"/>
</svg>
