<svg width="45" height="45" viewBox="0 0 45 45" fill="none" xmlns="http://www.w3.org/2000/svg">
<rect width="45" height="45" rx="3" fill="white" fill-opacity="0.1"/>
<path d="M12.375 18.0675C12.3753 17.875 12.425 17.6857 12.5194 17.5179C12.6137 17.3501 12.7495 17.2093 12.9139 17.109L22.5 11.25L32.0861 17.109C32.2505 17.2093 32.3863 17.3501 32.4806 17.5179C32.575 17.6857 32.6247 17.875 32.625 18.0675V29.25C32.625 29.5484 32.5065 29.8345 32.2955 30.0455C32.0845 30.2565 31.7984 30.375 31.5 30.375H13.5C13.2016 30.375 12.9155 30.2565 12.7045 30.0455C12.4935 29.8345 12.375 29.5484 12.375 29.25V18.0675Z" stroke="white" stroke-width="2"/>
<path d="M12.375 18.5625L22.5 24.75L32.625 18.5625" stroke="white" stroke-width="2" stroke-linecap="round"/>
</svg>
