<svg width="30" height="30" viewBox="0 0 30 30" fill="none" xmlns="http://www.w3.org/2000/svg">
<g clip-path="url(#clip0_263_508)">
<path d="M29.5598 6.84844C29.8029 6.84844 30 6.65139 30 6.40828V4.84014C30 3.97166 29.2935 3.26514 28.425 3.26514H1.575C0.706523 3.26514 0 3.97166 0 4.84014V21.9743C0 22.8428 0.706523 23.5493 1.575 23.5493H20.4561V25.4142C20.4561 26.1422 21.0485 26.7346 21.7765 26.7346H24.1753C24.9033 26.7346 25.4957 26.1422 25.4957 25.4142V23.5493H28.4249C29.2934 23.5493 29.9999 22.8428 29.9999 21.9743V8.52539C29.9999 8.28229 29.8029 8.08523 29.5598 8.08523C29.3167 8.08523 29.1196 8.28229 29.1196 8.52539V12.9671H24.7444L23.9591 10.6801C23.8129 10.2534 23.427 9.97764 22.9759 9.97764C22.5249 9.97764 22.1389 10.2534 21.9926 10.6801L20.5194 14.9563C20.4786 15.074 20.4574 15.196 20.4561 15.3233V17.0748H15.2885V13.8473H19.0419C19.285 13.8473 19.4821 13.6503 19.4821 13.4072C19.4821 13.1641 19.285 12.967 19.0419 12.967H15.2885V4.14539H28.425C28.8081 4.14539 29.1197 4.45705 29.1197 4.84014V6.40828C29.1197 6.65139 29.3168 6.84844 29.5598 6.84844ZM3.36914 22.669C3.34131 22.4698 3.32725 22.2694 3.32725 22.0703C3.32725 19.6796 5.27221 17.7346 7.66295 17.7346C10.0536 17.7346 11.9987 19.6796 11.9987 22.0703C11.9987 22.2695 11.9846 22.4698 11.9568 22.669H3.36914ZM22.1023 13.0729H23.8496L24.4763 14.8834L21.4761 14.8832L22.1023 13.0729ZM24.6154 15.7637V23.6457H21.3364V15.7634L24.6154 15.7637ZM24.1753 25.8543H21.7766C21.5339 25.8543 21.3364 25.6569 21.3364 25.4141V24.526H24.6155V25.4141C24.6154 25.6568 24.418 25.8543 24.1753 25.8543ZM29.1197 21.9743C29.1197 22.3574 28.8081 22.669 28.425 22.669H25.4957V17.9551H29.1197V21.9743ZM29.1197 13.8473V17.0748H25.4957V15.3193C25.4944 15.1949 25.4734 15.0728 25.433 14.9563L25.0492 13.8473H29.1197ZM22.8254 10.9654C22.8575 10.8718 22.9335 10.8579 22.976 10.8579C23.0184 10.8579 23.0944 10.8719 23.1264 10.9654L23.547 12.1927H22.4049L22.8254 10.9654ZM20.4561 17.9551V22.669H15.2885V17.9551H20.4561ZM14.4083 12.9671H8.55387C8.77752 10.39 10.9468 8.36109 13.5809 8.36109H14.4083V12.9671ZM14.4083 7.48084H13.5809C10.4612 7.48084 7.89686 9.90398 7.67092 12.9671H4.80902C4.56592 12.9671 4.36887 13.1641 4.36887 13.4072C4.36887 13.6504 4.56592 13.8474 4.80902 13.8474H14.4082V22.669H12.8438C12.8669 22.4696 12.8789 22.2696 12.8789 22.0704C12.8789 19.1943 10.539 16.8544 7.66295 16.8544C4.78682 16.8544 2.44693 19.1943 2.44693 22.0704C2.44693 22.2696 2.45895 22.4697 2.48209 22.669H1.575C1.19191 22.669 0.880254 22.3574 0.880254 21.9743V13.8473H2.56588C2.80898 13.8473 3.00604 13.6503 3.00604 13.4072C3.00604 13.1641 2.80898 12.967 2.56588 12.967H0.880254V4.84008C0.880254 4.45699 1.19191 4.14533 1.575 4.14533H14.4083V7.48084Z" fill="white"/>
<path d="M5.13059 9.98182C6.18867 9.98182 7.04947 9.12102 7.04947 8.06293C7.04947 7.00484 6.18867 6.14404 5.13059 6.14404C4.0725 6.14404 3.2117 7.00484 3.2117 8.06293C3.2117 9.12102 4.07256 9.98182 5.13059 9.98182ZM5.13059 7.0243C5.70328 7.0243 6.16922 7.49023 6.16922 8.06293C6.16922 8.63563 5.70328 9.10156 5.13059 9.10156C4.55789 9.10156 4.09195 8.63563 4.09195 8.06293C4.09195 7.49023 4.55789 7.0243 5.13059 7.0243Z" fill="white"/>
<path d="M20.8554 6.20178C20.4408 5.4185 19.6175 4.8833 18.6712 4.8833C17.3092 4.8833 16.2011 5.99137 16.2011 7.35344C16.2011 8.71545 17.3092 9.82352 18.6712 9.82352C19.155 9.82352 19.6063 9.68319 19.9878 9.44184C20.3425 9.78467 20.8194 9.98219 21.3217 9.98219C22.3798 9.98219 23.2406 9.12139 23.2406 8.0633C23.2406 7.00522 22.3798 6.14442 21.3217 6.14442C21.1628 6.14436 21.0069 6.16387 20.8554 6.20178ZM17.0814 7.35344C17.0814 6.47682 17.7946 5.76361 18.6712 5.76361C19.5478 5.76361 20.261 6.47682 20.261 7.35344C20.261 8.23006 19.5478 8.94327 18.6712 8.94327C17.7945 8.94321 17.0814 8.23006 17.0814 7.35344ZM22.3603 8.06325C22.3603 8.63594 21.8943 9.10188 21.3216 9.10188C21.0677 9.10188 20.8256 9.00871 20.6382 8.84518C20.9536 8.43039 21.1412 7.91348 21.1412 7.35344C21.1412 7.24873 21.1339 7.14572 21.1212 7.04436C21.1867 7.03158 21.2535 7.02467 21.3216 7.02467C21.8944 7.02461 22.3603 7.49055 22.3603 8.06325Z" fill="white"/>
</g>
<defs>
<clipPath id="clip0_263_508">
<rect width="30" height="30" fill="white"/>
</clipPath>
</defs>
</svg>
