<svg width="50" height="37" viewBox="0 0 50 37" fill="none" xmlns="http://www.w3.org/2000/svg">
<path d="M24.9995 18.5L0.0239258 6.02214V3.08333C0.0239258 2.21615 0.332869 1.48546 0.950755 0.891276C1.56864 0.297092 2.30035 0 3.14588 0H46.8532C47.6987 0 48.4304 0.297092 49.0483 0.891276C49.6662 1.48546 49.9751 2.21615 49.9751 3.08333V6.02214L24.9995 18.5ZM23.4386 21.5833H26.5605L49.9751 9.58724V33.9167C49.9751 34.7517 49.6662 35.4744 49.0483 36.0846C48.4304 36.6949 47.6987 37 46.8532 37H3.14588C2.30035 37 1.56864 36.6949 0.950755 36.0846C0.332869 35.4744 0.0239258 34.7517 0.0239258 33.9167V9.58724L23.4386 21.5833Z" fill="white"/>
</svg>
