<svg width="27" height="27" viewBox="0 0 27 27" fill="none" xmlns="http://www.w3.org/2000/svg">
<path d="M6.37986 4.78933C10.7989 1.16795 17.3295 1.41995 21.4549 5.54533C25.848 9.93845 25.848 17.062 21.4549 21.4551C17.0617 25.8482 9.93824 25.8482 5.54511 21.4551C4.19694 20.1087 3.21307 18.4419 2.68588 16.611C2.15868 14.7801 2.10547 12.8452 2.53124 10.9881L2.61786 10.636L4.79361 11.2097C4.25422 13.2597 4.45577 15.4344 5.36272 17.3504C6.26968 19.2664 7.82384 20.8008 9.7513 21.6831C11.6788 22.5654 13.8558 22.7391 15.8988 22.1735C17.9417 21.6079 19.7195 20.3393 20.9187 18.5913C22.118 16.8433 22.6617 14.7281 22.4541 12.6185C22.2466 10.5089 21.301 8.54021 19.7841 7.05947C18.2672 5.57873 16.2763 4.68095 14.1622 4.52435C12.0482 4.36775 9.94677 4.96238 8.22824 6.20345L7.97961 6.3902L9.12373 7.53433L3.95324 8.72683L5.14574 3.55633L6.37874 4.78933H6.37986ZM14.625 6.7502V9.0002H17.4375V11.2502H11.25C11.1094 11.2499 10.9739 11.3023 10.87 11.397C10.7661 11.4917 10.7015 11.6219 10.6888 11.7619C10.676 11.9019 10.7162 12.0415 10.8014 12.1534C10.8865 12.2652 11.0104 12.3412 11.1487 12.3662L11.25 12.3752H15.75C16.4959 12.3752 17.2113 12.6715 17.7387 13.199C18.2662 13.7264 18.5625 14.4418 18.5625 15.1877C18.5625 15.9336 18.2662 16.649 17.7387 17.1764C17.2113 17.7039 16.4959 18.0002 15.75 18.0002H14.625V20.2502H12.375V18.0002H9.56249V15.7502H15.75C15.8905 15.7505 16.0261 15.6981 16.13 15.6034C16.2339 15.5087 16.2985 15.3785 16.3112 15.2385C16.3239 15.0985 16.2837 14.9589 16.1986 14.847C16.1135 14.7352 15.9896 14.6592 15.8512 14.6342L15.75 14.6252H11.25C10.5041 14.6252 9.78869 14.3289 9.26125 13.8014C8.7338 13.274 8.43749 12.5586 8.43749 11.8127C8.43749 11.0668 8.7338 10.3514 9.26125 9.82397C9.78869 9.29652 10.5041 9.0002 11.25 9.0002H12.375V6.7502H14.625Z" fill="white"/>
</svg>
