<svg width="17" height="17" viewBox="0 0 17 17" fill="none" xmlns="http://www.w3.org/2000/svg">
<path d="M14.775 8.8485C14.775 5.14275 11.8995 2.625 8.69995 2.625C5.5342 2.625 2.62495 5.08875 2.62495 8.889C2.21995 9.1185 1.94995 9.5505 1.94995 10.05V11.4C1.94995 12.1425 2.55745 12.75 3.29995 12.75H3.97495V8.6325C3.97495 6.02025 6.0877 3.9075 8.69995 3.9075C11.3122 3.9075 13.425 6.02025 13.425 8.6325V13.425H8.02495V14.775H13.425C14.1675 14.775 14.775 14.1675 14.775 13.425V12.6015C15.1732 12.3923 15.45 11.9805 15.45 11.4945V9.942C15.45 9.4695 15.1732 9.05775 14.775 8.8485Z" fill="white"/>
<path d="M6.675 10.0502C7.04779 10.0502 7.35 9.74799 7.35 9.3752C7.35 9.0024 7.04779 8.7002 6.675 8.7002C6.30221 8.7002 6 9.0024 6 9.3752C6 9.74799 6.30221 10.0502 6.675 10.0502Z" fill="white"/>
<path d="M10.725 10.0502C11.0978 10.0502 11.4 9.74799 11.4 9.3752C11.4 9.0024 11.0978 8.7002 10.725 8.7002C10.3522 8.7002 10.05 9.0024 10.05 9.3752C10.05 9.74799 10.3522 10.0502 10.725 10.0502Z" fill="white"/>
<path d="M12.75 8.04515C12.589 7.09619 12.0975 6.23478 11.3625 5.61338C10.6274 4.99199 9.69624 4.65069 8.73373 4.6499C6.68848 4.6499 4.48798 6.34415 4.66348 9.00365C5.49584 8.66304 6.23099 8.12176 6.80338 7.42806C7.37577 6.73436 7.76762 5.9098 7.94398 5.0279C8.82823 6.80315 10.644 8.0249 12.75 8.04515Z" fill="white"/>
</svg>
