<svg width="27" height="27" viewBox="0 0 27 27" fill="none" xmlns="http://www.w3.org/2000/svg">
<path d="M23.625 6.75H16.3125L13.3876 4.55625C13.0951 4.33785 12.74 4.21951 12.375 4.21875H7.59375C7.14635 4.21925 6.71742 4.3972 6.40106 4.71356C6.0847 5.02992 5.90675 5.45885 5.90625 5.90625V7.59375H4.21875C3.77135 7.59425 3.34242 7.7722 3.02606 8.08856C2.7097 8.40492 2.53175 8.83385 2.53125 9.28125V21.0938C2.53175 21.5411 2.7097 21.9701 3.02606 22.2864C3.34242 22.6028 3.77135 22.7807 4.21875 22.7812H20.3438C20.7663 22.7808 21.1714 22.6127 21.4702 22.3139C21.769 22.0152 21.937 21.6101 21.9375 21.1875V19.4062H23.7188C24.1413 19.4058 24.5464 19.2377 24.8452 18.9389C25.144 18.6402 25.312 18.2351 25.3125 17.8125V8.4375C25.312 7.9901 25.134 7.56117 24.8177 7.24481C24.5013 6.92845 24.0724 6.7505 23.625 6.75ZM23.625 17.7188H21.9375V11.8125C21.937 11.3651 21.759 10.9362 21.4427 10.6198C21.1263 10.3035 20.6974 10.1255 20.25 10.125H12.9375L10.0126 7.93125C9.72008 7.71285 9.365 7.59451 8.99996 7.59375H7.59375V5.90625H12.375L15.2999 8.1C15.5924 8.3184 15.9475 8.43674 16.3125 8.4375H23.625V17.7188Z" fill="white"/>
</svg>
