<svg width="27" height="27" viewBox="0 0 27 27" fill="none" xmlns="http://www.w3.org/2000/svg">
<path d="M13.5001 11.9851C15.4717 11.9851 17.0701 10.4069 17.0701 8.46006C17.0701 6.51325 15.4717 4.93506 13.5001 4.93506C11.5284 4.93506 9.93005 6.51325 9.93005 8.46006C9.93005 10.4069 11.5284 11.9851 13.5001 11.9851Z" fill="white"/>
<path d="M8.08501 8.81271H8.44501V8.49021C8.44719 7.55241 8.71177 6.63393 9.2088 5.83868C9.70584 5.04342 10.4155 4.40312 11.2575 3.99021C11.0082 3.41613 10.6081 2.92029 10.0997 2.55534C9.59124 2.19039 8.99344 1.96997 8.36978 1.91748C7.74613 1.86499 7.1199 1.9824 6.55761 2.25724C5.99532 2.53208 5.51797 2.95407 5.17625 3.47842C4.83454 4.00276 4.64122 4.60986 4.61683 5.23525C4.59244 5.86064 4.73789 6.48095 5.03773 7.03031C5.33758 7.57968 5.78062 8.03757 6.31979 8.35536C6.85897 8.67315 7.47416 8.83897 8.10001 8.83521L8.08501 8.81271Z" fill="white"/>
<path d="M18.57 8.46041V8.78292H18.93C19.5475 8.77672 20.1519 8.60416 20.6797 8.28341C21.2074 7.96266 21.6389 7.50557 21.9287 6.96027C22.2185 6.41496 22.356 5.8016 22.3266 5.18476C22.2973 4.56791 22.1022 3.97038 21.7618 3.45507C21.4215 2.93977 20.9486 2.52574 20.3928 2.25656C19.837 1.98739 19.2189 1.87303 18.6036 1.92552C17.9883 1.97801 17.3985 2.1954 16.8963 2.55483C16.3941 2.91425 15.9981 3.40241 15.75 3.96791C16.5923 4.37921 17.3027 5.01789 17.801 5.81177C18.2994 6.60566 18.5657 7.5231 18.57 8.46041Z" fill="white"/>
<path d="M16.7175 12.3379C18.2087 12.6331 19.6506 13.1381 21 13.8379C21.1902 13.9423 21.3623 14.0765 21.51 14.2354H25.5V11.6704C25.5008 11.572 25.4746 11.4753 25.4244 11.3907C25.3741 11.3061 25.3018 11.2369 25.215 11.1904C23.2711 10.1736 21.1088 9.64592 18.915 9.6529H18.42C18.1601 10.7094 17.5623 11.6522 16.7175 12.3379Z" fill="white"/>
<path d="M4.89752 15.69C4.89615 15.3123 4.99815 14.9414 5.19249 14.6175C5.38683 14.2936 5.66609 14.0291 6.00002 13.8525C7.34948 13.1527 8.79132 12.6477 10.2825 12.3525C9.44182 11.6727 8.8444 10.7384 8.58002 9.69001H8.08502C5.89129 9.68302 3.7289 10.2107 1.78501 11.2275C1.69829 11.274 1.62591 11.3432 1.57568 11.4278C1.52545 11.5124 1.49929 11.6091 1.50001 11.7075V16.5H4.89752V15.69Z" fill="white"/>
<path d="M16.095 20.0176H20.565V21.0676H16.095V20.0176Z" fill="white"/>
<path d="M24.6075 15.9451H19.455V15.1951C19.455 14.9962 19.376 14.8054 19.2354 14.6648C19.0947 14.5241 18.904 14.4451 18.705 14.4451C18.5061 14.4451 18.3154 14.5241 18.1747 14.6648C18.0341 14.8054 17.955 14.9962 17.955 15.1951V15.9451H16.5V13.8226C15.5133 13.6154 14.5083 13.5074 13.5 13.5001C11.1329 13.4903 8.7995 14.062 6.70504 15.1651C6.61175 15.2135 6.53365 15.2868 6.47939 15.3768C6.42512 15.4668 6.39679 15.57 6.39754 15.6751V19.8826H11.73V24.4501C11.73 24.649 11.8091 24.8398 11.9497 24.9805C12.0904 25.1211 12.2811 25.2001 12.48 25.2001H24.6075C24.8065 25.2001 24.9972 25.1211 25.1379 24.9805C25.2785 24.8398 25.3575 24.649 25.3575 24.4501V16.6951C25.3575 16.4962 25.2785 16.3054 25.1379 16.1648C24.9972 16.0241 24.8065 15.9451 24.6075 15.9451ZM23.8575 23.7151H13.23V17.4451H17.955V18.1276C17.955 18.3265 18.0341 18.5173 18.1747 18.658C18.3154 18.7986 18.5061 18.8776 18.705 18.8776C18.904 18.8776 19.0947 18.7986 19.2354 18.658C19.376 18.5173 19.455 18.3265 19.455 18.1276V17.4451H23.8575V23.7151Z" fill="white"/>
</svg>
